<svg xmlns="http://www.w3.org/2000/svg" xmlns:v="https://svgstorm.com"
viewBox = "0 0 512 512"
width="512"
height="512">
<g fill="None" fill-opacity="0.0" stroke="#000000" stroke-opacity="0.00" stroke-width="0.3"><path d="
M 0.00 61.00 
C 11.97 69.70 19.01 79.81 34.22 83.78 C 49.44 87.74 67.98 82.33 82.00 77.00
C 85.07 86.22 84.91 84.58 89.75 94.25 C 94.60 103.91 105.84 114.44 116.08 117.92 C 126.31 121.41 126.76 122.98 137.00 122.00 C 147.24 121.02 151.71 124.33 150.00 134.00 C 148.29 143.67 151.58 148.04 153.78 155.22 C 155.97 162.41 159.15 165.34 163.25 170.75 C 167.34 176.16 171.73 178.53 177.08 181.92 C 182.43 185.31 189.25 187.36 195.00 190.00
C 179.97 216.35 184.85 251.65 211.00 270.00
C 188.96 289.12 178.50 320.34 193.00 347.00
C 202.22 343.25 211.58 339.22 221.00 336.00
C 209.23 309.02 228.10 279.91 256.00 277.00
C 264.67 276.10 276.70 277.29 284.00 283.00
C 283.07 277.12 288.15 266.66 284.67 260.33 C 281.20 254.00 279.88 248.89 275.25 243.75 C 270.62 238.61 267.33 233.99 261.77 230.23 C 256.21 226.47 252.75 222.09 246.77 219.23 C 240.79 216.37 235.77 211.76 229.31 209.69 C 222.84 207.63 219.27 198.86 225.70 194.70 C 232.14 190.55 238.83 196.60 244.70 199.31 C 250.56 202.01 255.65 205.42 261.08 208.92 C 266.51 212.42 271.26 216.40 276.25 220.75 C 281.24 225.10 284.44 229.01 288.77 234.23 C 293.10 239.45 295.59 244.74 298.78 251.22 C 301.96 257.71 300.59 266.55 302.00 274.00 C 303.41 281.45 296.16 288.96 296.00 295.00
C 300.91 301.40 302.55 310.77 303.00 319.00 C 303.45 327.24 299.85 335.40 295.70 342.70 C 291.54 349.99 285.53 352.83 278.31 357.31 C 271.08 361.78 259.86 360.16 251.33 360.67 C 242.80 361.18 237.25 350.57 230.00 350.00
C 210.26 360.77 184.14 368.26 162.00 372.00
C 156.72 375.07 157.62 382.57 153.68 386.68 C 149.74 390.79 152.63 401.96 150.00 406.00
C 170.89 401.22 194.55 398.28 215.07 393.07 C 235.59 387.86 255.79 382.00 275.23 375.23 C 294.67 368.46 311.43 360.37 329.69 351.70 C 347.96 343.02 359.57 330.67 375.00 318.00
C 371.17 317.81 367.97 311.43 364.75 309.25 C 361.54 307.07 358.90 301.28 357.00 298.00
C 352.00 289.40 350.00 280.44 350.00 270.00
C 350.00 259.62 352.64 249.75 358.00 241.00
C 361.73 234.91 368.83 226.33 375.00 223.00
C 370.46 221.83 367.57 213.37 362.75 211.25 C 357.94 209.12 353.62 203.80 348.75 201.25 C 343.89 198.69 338.92 194.45 333.77 192.23 C 328.62 190.01 322.78 184.43 317.00 184.00
C 290.84 193.78 258.77 183.59 241.00 163.00
C 239.74 161.54 238.16 159.70 237.00 158.00
C 235.84 156.31 234.97 154.76 234.00 153.00
C 226.21 147.49 213.20 150.94 204.98 146.02 C 196.76 141.11 183.50 147.27 177.25 137.75 C 170.99 128.23 188.00 121.79 195.67 127.33 C 203.34 132.87 218.55 128.46 226.00 134.00
C 224.31 128.10 224.00 122.39 224.00 116.00
C 224.00 111.48 223.95 107.24 225.00 103.00
C 220.20 105.71 210.85 99.60 205.00 100.00 C 199.15 100.41 191.10 96.51 184.78 96.22 C 178.45 95.93 171.18 94.21 164.78 93.22 C 158.38 92.24 149.26 92.22 143.00 91.00 C 136.74 89.78 127.95 90.24 122.77 87.23 C 117.59 84.22 119.67 73.36 126.08 73.08 C 132.49 72.80 141.25 74.62 148.00 75.00 C 154.75 75.38 162.19 77.31 169.01 77.99 C 175.82 78.68 182.29 79.72 189.02 80.98 C 195.76 82.23 203.26 82.66 210.00 84.00 C 216.74 85.33 223.17 86.96 230.00 88.00
C 244.73 47.08 296.92 36.76 331.00 57.00
C 336.04 59.99 341.80 63.25 345.75 68.25 C 349.71 73.25 354.13 77.67 356.77 83.23 C 359.41 88.79 363.23 96.74 363.33 102.67 C 363.43 108.60 368.72 121.10 364.00 126.00
C 396.58 136.35 426.61 155.92 454.75 175.25 C 482.88 194.58 505.82 225.48 512.00 258.00
L 512.00 0.00
L 0.00 0.00
L 0.00 61.00
M 476.00 46.00 
C 483.24 48.49 503.74 47.71 504.97 59.03 C 506.21 70.34 484.15 72.27 477.00 73.00
C 473.01 80.27 475.25 101.33 462.99 101.99 C 450.73 102.66 451.15 80.39 448.00 73.00
C 440.96 72.14 418.55 70.28 420.00 59.00 C 421.45 47.72 441.58 48.35 449.00 46.00
C 450.53 39.00 450.92 17.30 462.08 17.08 C 473.23 16.85 474.79 38.84 476.00 46.00
M 135.00 30.00 
C 143.89 32.25 141.23 48.24 131.00 46.00 C 120.77 43.76 124.48 27.33 135.00 30.00
M 445.00 116.00 
C 453.92 119.63 446.59 135.66 437.33 130.67 C 428.07 125.68 434.86 111.87 445.00 116.00
M 485.00 142.00 
C 494.52 144.05 491.43 160.79 481.00 158.00 C 470.57 155.21 474.96 139.84 485.00 142.00
M 249.00 242.00 
C 257.10 245.30 251.14 261.52 241.93 257.07 C 232.71 252.63 237.93 237.50 249.00 242.00 Z"/>
</g>
<g fill="None" fill-opacity="0.0" stroke="#FEF0AE" stroke-opacity="0.95" stroke-width="0.3"><path d="
M 476.00 46.00 
C 474.79 38.84 473.23 16.85 462.08 17.08 C 450.92 17.30 450.53 39.00 449.00 46.00
C 441.58 48.35 421.45 47.72 420.00 59.00 C 418.55 70.28 440.96 72.14 448.00 73.00
C 451.15 80.39 450.73 102.66 462.99 101.99 C 475.25 101.33 473.01 80.27 477.00 73.00
C 484.15 72.27 506.21 70.34 504.97 59.03 C 503.74 47.71 483.24 48.49 476.00 46.00 Z"/>
</g>
<g fill="None" fill-opacity="0.0" stroke="#FEE97C" stroke-opacity="0.87" stroke-width="0.3"><path d="
M 135.00 30.00 
C 124.48 27.33 120.77 43.76 131.00 46.00 C 141.23 48.24 143.89 32.25 135.00 30.00 Z"/>
</g>
<g fill="None" fill-opacity="0.0" stroke="#24A5FD" stroke-opacity="0.99" stroke-width="0.3"><path d="
M 230.00 88.00 
C 228.26 92.84 226.16 98.32 225.00 103.00
C 223.95 107.24 224.00 111.48 224.00 116.00
C 230.66 115.74 239.56 116.34 246.00 116.00 C 252.44 115.66 261.18 115.24 264.30 120.70 C 267.42 126.15 266.61 135.34 265.67 140.67 C 264.73 146.00 256.67 149.53 252.77 150.77 C 248.87 152.01 240.79 159.15 237.00 158.00
C 238.16 159.70 239.74 161.54 241.00 163.00
C 249.03 170.35 264.97 165.24 274.22 163.22 C 283.47 161.20 292.61 155.29 299.75 148.75 C 306.90 142.22 313.42 134.77 317.00 126.00
C 318.25 126.30 318.71 127.83 320.00 128.00
C 314.21 120.21 304.53 112.92 298.25 105.75 C 291.96 98.59 294.61 94.39 294.78 87.78 C 294.95 81.16 300.12 78.00 304.23 75.23 C 308.34 72.46 318.77 74.53 321.69 70.69 C 324.62 66.86 331.63 61.07 331.00 57.00
C 296.92 36.76 244.73 47.08 230.00 88.00 Z"/>
</g>
<g fill="None" fill-opacity="0.0" stroke="#0DD693" stroke-opacity="0.99" stroke-width="0.3"><path d="
M 320.00 128.00 
C 328.96 140.05 328.77 160.04 334.00 174.00
C 334.14 173.78 335.00 174.00 335.00 174.00
C 338.93 172.58 342.33 168.06 345.25 165.25 C 348.17 162.44 352.61 158.27 353.77 154.77 C 354.93 151.27 361.22 145.61 360.00 142.00
C 354.70 139.38 340.18 135.95 343.00 127.00 C 345.82 118.05 359.73 124.64 364.00 126.00
C 368.72 121.10 363.43 108.60 363.33 102.67 C 363.23 96.74 359.41 88.79 356.77 83.23 C 354.13 77.67 349.71 73.25 345.75 68.25 C 341.80 63.25 336.04 59.99 331.00 57.00
C 331.63 61.07 324.62 66.86 321.69 70.69 C 318.77 74.53 308.34 72.46 304.23 75.23 C 300.12 78.00 294.95 81.16 294.78 87.78 C 294.61 94.39 291.96 98.59 298.25 105.75 C 304.53 112.92 314.21 120.21 320.00 128.00 Z"/>
</g>
<g fill="None" fill-opacity="0.0" stroke="#FD9738" stroke-opacity="0.98" stroke-width="0.3"><path d="
M 0.00 117.00 
C 17.22 117.44 33.90 120.18 50.00 125.00
C 60.98 128.29 72.00 134.30 81.75 140.25 C 91.49 146.21 99.83 152.61 108.25 160.75 C 116.66 168.89 122.96 176.93 129.30 186.70 C 135.64 196.47 141.07 206.61 144.93 218.07 C 148.78 229.54 153.46 243.30 153.93 256.07 C 154.39 268.85 154.90 288.99 151.67 300.67 C 148.44 312.35 146.10 326.49 140.07 336.07 C 134.05 345.66 131.38 358.89 122.00 365.00
C 146.09 360.52 170.58 356.12 193.00 347.00
C 178.50 320.34 188.96 289.12 211.00 270.00
C 184.85 251.65 179.97 216.35 195.00 190.00
C 189.25 187.36 182.43 185.31 177.08 181.92 C 171.73 178.53 167.34 176.16 163.25 170.75 C 159.15 165.34 155.97 162.41 153.78 155.22 C 151.58 148.04 148.29 143.67 150.00 134.00 C 151.71 124.33 147.24 121.02 137.00 122.00 C 126.76 122.98 126.31 121.41 116.08 117.92 C 105.84 114.44 94.60 103.91 89.75 94.25 C 84.91 84.58 85.07 86.22 82.00 77.00
C 67.98 82.33 49.44 87.74 34.22 83.78 C 19.01 79.81 11.97 69.70 0.00 61.00
L 0.00 117.00 Z"/>
</g>
<g fill="None" fill-opacity="0.0" stroke="#C4E2FF" stroke-opacity="0.93" stroke-width="0.3"><path d="
M 225.00 103.00 
C 226.16 98.32 228.26 92.84 230.00 88.00
C 223.17 86.96 216.74 85.33 210.00 84.00 C 203.26 82.66 195.76 82.23 189.02 80.98 C 182.29 79.72 175.82 78.68 169.01 77.99 C 162.19 77.31 154.75 75.38 148.00 75.00 C 141.25 74.62 132.49 72.80 126.08 73.08 C 119.67 73.36 117.59 84.22 122.77 87.23 C 127.95 90.24 136.74 89.78 143.00 91.00 C 149.26 92.22 158.38 92.24 164.78 93.22 C 171.18 94.21 178.45 95.93 184.78 96.22 C 191.10 96.51 199.15 100.41 205.00 100.00 C 210.85 99.60 220.20 105.71 225.00 103.00 Z"/>
</g>
<g fill="None" fill-opacity="0.0" stroke="#06E29C" stroke-opacity="0.99" stroke-width="0.3"><path d="
M 226.00 134.00 
C 227.88 140.55 230.68 146.98 234.00 153.00
C 234.97 154.76 235.84 156.31 237.00 158.00
C 240.79 159.15 248.87 152.01 252.77 150.77 C 256.67 149.53 264.73 146.00 265.67 140.67 C 266.61 135.34 267.42 126.15 264.30 120.70 C 261.18 115.24 252.44 115.66 246.00 116.00 C 239.56 116.34 230.66 115.74 224.00 116.00
C 224.00 122.39 224.31 128.10 226.00 134.00 Z"/>
</g>
<g fill="None" fill-opacity="0.0" stroke="#FEE97C" stroke-opacity="0.87" stroke-width="0.3"><path d="
M 445.00 116.00 
C 434.86 111.87 428.07 125.68 437.33 130.67 C 446.59 135.66 453.92 119.63 445.00 116.00 Z"/>
</g>
<g fill="None" fill-opacity="0.0" stroke="#FED403" stroke-opacity="1.00" stroke-width="0.3"><path d="
M 0.00 375.00 
C 6.33 375.00 12.67 375.00 19.00 375.00
C 31.62 375.00 44.27 374.14 56.00 373.00
C 55.01 372.82 53.26 373.52 53.00 372.00
C 135.29 314.97 131.26 181.59 50.00 125.00
C 33.90 120.18 17.22 117.44 0.00 117.00
L 0.00 375.00 Z"/>
</g>
<g fill="None" fill-opacity="0.0" stroke="#C4E2FE" stroke-opacity="0.93" stroke-width="0.3"><path d="
M 360.00 142.00 
C 399.15 161.36 433.95 175.54 466.75 207.25 C 499.55 238.96 506.30 293.35 473.08 327.08 C 439.86 360.81 411.77 377.19 369.32 395.32 C 326.88 413.45 284.25 425.40 237.78 435.78 C 191.31 446.16 134.86 451.42 86.00 456.00
C 77.41 456.81 69.08 458.00 60.00 458.00
C 52.41 458.00 44.56 457.40 37.00 458.00
C 25.06 458.95 12.58 461.27 0.00 460.00
L 0.00 474.00
C 2.34 473.02 5.43 474.85 7.00 475.00
C 42.13 478.40 83.85 471.33 118.00 470.00 C 152.15 468.67 187.41 460.57 219.67 455.67 C 251.93 450.77 283.16 441.63 313.02 433.02 C 342.89 424.42 370.02 413.79 397.08 401.08 C 424.13 388.36 445.12 374.70 467.75 355.75 C 490.37 336.79 506.29 311.37 512.00 284.00
L 512.00 258.00
C 505.82 225.48 482.88 194.58 454.75 175.25 C 426.61 155.92 396.58 136.35 364.00 126.00
C 359.73 124.64 345.82 118.05 343.00 127.00 C 340.18 135.95 354.70 139.38 360.00 142.00 Z"/>
</g>
<g fill="None" fill-opacity="0.0" stroke="#F9C503" stroke-opacity="1.00" stroke-width="0.3"><path d="
M 56.00 373.00 
C 78.62 370.81 100.10 369.07 122.00 365.00
C 131.38 358.89 134.05 345.66 140.07 336.07 C 146.10 326.49 148.44 312.35 151.67 300.67 C 154.90 288.99 154.39 268.85 153.93 256.07 C 153.46 243.30 148.78 229.54 144.93 218.07 C 141.07 206.61 135.64 196.47 129.30 186.70 C 122.96 176.93 116.66 168.89 108.25 160.75 C 99.83 152.61 91.49 146.21 81.75 140.25 C 72.00 134.30 60.98 128.29 50.00 125.00
C 131.26 181.59 135.29 314.97 53.00 372.00
C 53.26 373.52 55.01 372.82 56.00 373.00 Z"/>
</g>
<g fill="None" fill-opacity="0.0" stroke="#C4E2FE" stroke-opacity="0.92" stroke-width="0.3"><path d="
M 234.00 153.00 
C 230.68 146.98 227.88 140.55 226.00 134.00
C 218.55 128.46 203.34 132.87 195.67 127.33 C 188.00 121.79 170.99 128.23 177.25 137.75 C 183.50 147.27 196.76 141.11 204.98 146.02 C 213.20 150.94 226.21 147.49 234.00 153.00 Z"/>
</g>
<g fill="None" fill-opacity="0.0" stroke="#0693FB" stroke-opacity="0.98" stroke-width="0.3"><path d="
M 241.00 163.00 
C 258.77 183.59 290.84 193.78 317.00 184.00
C 321.36 182.37 331.39 178.18 334.00 174.00
C 328.77 160.04 328.96 140.05 320.00 128.00
C 318.71 127.83 318.25 126.30 317.00 126.00
C 313.42 134.77 306.90 142.22 299.75 148.75 C 292.61 155.29 283.47 161.20 274.22 163.22 C 264.97 165.24 249.03 170.35 241.00 163.00 Z"/>
</g>
<g fill="None" fill-opacity="0.0" stroke="#000000" stroke-opacity="0.00" stroke-width="0.3"><path d="
M 335.00 174.00 
C 352.70 188.20 376.93 195.86 391.00 216.00
C 396.60 214.08 404.88 213.43 411.00 214.00
C 428.92 215.68 444.47 225.77 454.00 241.00
C 459.56 249.89 462.58 258.97 463.00 270.00
C 463.38 280.00 460.71 289.46 456.00 298.00
C 451.86 305.52 445.26 313.53 437.92 317.92 C 430.58 322.30 431.26 321.08 424.98 323.98 C 418.69 326.87 415.04 325.23 409.00 327.00 C 402.96 328.77 395.65 323.68 391.00 325.00
C 371.82 351.32 343.82 362.99 314.92 376.92 C 286.03 390.86 251.84 401.85 218.98 408.98 C 186.11 416.10 143.99 426.30 109.00 427.00
C 102.75 428.90 100.75 436.26 95.25 439.25 C 89.74 442.23 89.56 452.77 86.00 456.00
C 134.86 451.42 191.31 446.16 237.78 435.78 C 284.25 425.40 326.88 413.45 369.32 395.32 C 411.77 377.19 439.86 360.81 473.08 327.08 C 506.30 293.35 499.55 238.96 466.75 207.25 C 433.95 175.54 399.15 161.36 360.00 142.00
C 361.22 145.61 354.93 151.27 353.77 154.77 C 352.61 158.27 348.17 162.44 345.25 165.25 C 342.33 168.06 338.93 172.58 335.00 174.00 Z"/>
</g>
<g fill="None" fill-opacity="0.0" stroke="#FEE97C" stroke-opacity="0.85" stroke-width="0.3"><path d="
M 485.00 142.00 
C 474.96 139.84 470.57 155.21 481.00 158.00 C 491.43 160.79 494.52 144.05 485.00 142.00 Z"/>
</g>
<g fill="None" fill-opacity="0.0" stroke="#C4E2FE" stroke-opacity="0.92" stroke-width="0.3"><path d="
M 317.00 184.00 
C 322.78 184.43 328.62 190.01 333.77 192.23 C 338.92 194.45 343.89 198.69 348.75 201.25 C 353.62 203.80 357.94 209.12 362.75 211.25 C 367.57 213.37 370.46 221.83 375.00 223.00
C 379.41 220.62 386.37 217.58 391.00 216.00
C 376.93 195.86 352.70 188.20 335.00 174.00
C 335.00 174.00 334.14 173.78 334.00 174.00
C 331.39 178.18 321.36 182.37 317.00 184.00 Z"/>
</g>
<g fill="None" fill-opacity="0.0" stroke="#C4E2FE" stroke-opacity="0.92" stroke-width="0.3"><path d="
M 284.00 283.00 
C 287.00 285.34 293.32 291.51 296.00 295.00
C 296.16 288.96 303.41 281.45 302.00 274.00 C 300.59 266.55 301.96 257.71 298.78 251.22 C 295.59 244.74 293.10 239.45 288.77 234.23 C 284.44 229.01 281.24 225.10 276.25 220.75 C 271.26 216.40 266.51 212.42 261.08 208.92 C 255.65 205.42 250.56 202.01 244.70 199.31 C 238.83 196.60 232.14 190.55 225.70 194.70 C 219.27 198.86 222.84 207.63 229.31 209.69 C 235.77 211.76 240.79 216.37 246.77 219.23 C 252.75 222.09 256.21 226.47 261.77 230.23 C 267.33 233.99 270.62 238.61 275.25 243.75 C 279.88 248.89 281.20 254.00 284.67 260.33 C 288.15 266.66 283.07 277.12 284.00 283.00 Z"/>
</g>
<g fill="None" fill-opacity="0.0" stroke="#FDF0AE" stroke-opacity="0.98" stroke-width="0.3"><path d="
M 391.00 216.00 
C 386.37 217.58 379.41 220.62 375.00 223.00
C 368.83 226.33 361.73 234.91 358.00 241.00
C 378.50 242.83 400.08 242.00 421.00 242.00
C 421.19 237.57 417.18 229.52 416.08 225.92 C 414.97 222.33 407.45 215.09 411.00 214.00
C 404.88 213.43 396.60 214.08 391.00 216.00 Z"/>
</g>
<g fill="None" fill-opacity="0.0" stroke="#FEE97F" stroke-opacity="0.96" stroke-width="0.3"><path d="
M 421.00 242.00 
C 426.06 242.00 433.14 241.08 438.00 242.00 C 442.86 242.92 450.55 239.96 454.00 241.00
C 444.47 225.77 428.92 215.68 411.00 214.00
C 407.45 215.09 414.97 222.33 416.08 225.92 C 417.18 229.52 421.19 237.57 421.00 242.00 Z"/>
</g>
<g fill="None" fill-opacity="0.0" stroke="#FCCE01" stroke-opacity="0.99" stroke-width="0.3"><path d="
M 350.00 270.00 
C 387.67 270.00 425.33 270.00 463.00 270.00
C 462.58 258.97 459.56 249.89 454.00 241.00
C 450.55 239.96 442.86 242.92 438.00 242.00 C 433.14 241.08 426.06 242.00 421.00 242.00
C 400.08 242.00 378.50 242.83 358.00 241.00
C 352.64 249.75 350.00 259.62 350.00 270.00 Z"/>
</g>
<g fill="None" fill-opacity="0.0" stroke="#FEE97C" stroke-opacity="0.86" stroke-width="0.3"><path d="
M 249.00 242.00 
C 237.93 237.50 232.71 252.63 241.93 257.07 C 251.14 261.52 257.10 245.30 249.00 242.00 Z"/>
</g>
<g fill="None" fill-opacity="0.0" stroke="#FD8F28" stroke-opacity="0.99" stroke-width="0.3"><path d="
M 357.00 298.00 
C 361.05 299.75 369.51 297.95 374.00 298.00 C 378.49 298.05 386.86 299.61 391.00 298.00
C 393.37 293.65 393.83 288.16 400.23 286.23 C 406.63 284.30 409.60 292.43 408.00 298.00
C 414.09 294.53 425.33 300.48 432.00 298.00 C 438.67 295.52 449.63 301.15 456.00 298.00
C 460.71 289.46 463.38 280.00 463.00 270.00
C 425.33 270.00 387.67 270.00 350.00 270.00
C 350.00 280.44 352.00 289.40 357.00 298.00 Z"/>
</g>
<g fill="None" fill-opacity="0.0" stroke="#8694DE" stroke-opacity="0.98" stroke-width="0.3"><path d="
M 256.00 277.00 
C 260.00 279.22 259.79 291.22 261.00 295.00
C 254.14 295.85 252.63 307.82 260.00 309.00
C 259.20 315.85 254.70 321.37 251.00 327.00
C 250.73 330.76 256.81 334.79 250.25 338.25 C 243.69 341.70 236.34 346.54 230.00 350.00
C 237.25 350.57 242.80 361.18 251.33 360.67 C 259.86 360.16 271.08 361.78 278.31 357.31 C 285.53 352.83 291.54 349.99 295.70 342.70 C 299.85 335.40 303.45 327.24 303.00 319.00 C 302.55 310.77 300.91 301.40 296.00 295.00
C 293.32 291.51 287.00 285.34 284.00 283.00
C 276.70 277.29 264.67 276.10 256.00 277.00
M 277.00 319.00 
C 286.13 321.32 281.65 337.07 272.33 333.67 C 263.01 330.27 267.64 316.63 277.00 319.00 Z"/>
</g>
<g fill="None" fill-opacity="0.0" stroke="#A2AEE6" stroke-opacity="0.97" stroke-width="0.3"><path d="
M 221.00 336.00 
C 227.70 333.71 244.72 320.72 251.00 327.00
C 254.70 321.37 259.20 315.85 260.00 309.00
C 252.63 307.82 254.14 295.85 261.00 295.00
C 259.79 291.22 260.00 279.22 256.00 277.00
C 228.10 279.91 209.23 309.02 221.00 336.00 Z"/>
</g>
<g fill="None" fill-opacity="0.0" stroke="#000000" stroke-opacity="0.00" stroke-width="0.3"><path d="
M 7.00 475.00 
C 6.32 475.25 3.71 478.38 3.00 479.00
C 2.11 479.78 1.78 481.62 0.00 481.00
L 0.00 512.00
L 512.00 512.00
L 512.00 284.00
C 506.29 311.37 490.37 336.79 467.75 355.75 C 445.12 374.70 424.13 388.36 397.08 401.08 C 370.02 413.79 342.89 424.42 313.02 433.02 C 283.16 441.63 251.93 450.77 219.67 455.67 C 187.41 460.57 152.15 468.67 118.00 470.00 C 83.85 471.33 42.13 478.40 7.00 475.00
M 479.00 388.00 
C 489.15 390.57 482.84 408.03 473.33 403.67 C 463.82 399.31 469.55 385.61 479.00 388.00
M 435.00 439.00 
C 442.03 439.66 464.33 441.74 462.99 453.01 C 461.65 464.27 441.23 463.38 434.00 466.00
C 432.22 472.89 432.06 494.27 420.92 494.92 C 409.79 495.58 407.78 473.29 407.00 466.00
C 400.96 466.67 392.96 462.25 387.77 461.23 C 382.59 460.21 373.90 453.25 379.26 448.26 C 384.61 443.27 388.01 440.45 396.07 440.07 C 404.14 439.70 407.41 435.85 408.00 428.00 C 408.59 420.15 411.40 416.64 416.25 411.25 C 421.09 405.86 428.20 413.92 429.77 419.23 C 431.34 424.54 433.64 433.30 435.00 439.00
M 334.00 465.00 
C 342.46 468.44 336.39 484.44 326.98 480.02 C 317.56 475.60 323.47 460.72 334.00 465.00 Z"/>
</g>
<g fill="None" fill-opacity="0.0" stroke="#C4E2FE" stroke-opacity="0.95" stroke-width="0.3"><path d="
M 391.00 298.00 
C 386.45 306.34 382.36 311.95 375.00 318.00
C 359.57 330.67 347.96 343.02 329.69 351.70 C 311.43 360.37 294.67 368.46 275.23 375.23 C 255.79 382.00 235.59 387.86 215.07 393.07 C 194.55 398.28 170.89 401.22 150.00 406.00
C 118.31 413.25 84.96 413.76 52.00 416.00
C 41.58 416.71 30.77 417.00 20.00 417.00
C 14.08 417.57 6.63 418.65 0.00 418.00
L 0.00 432.00
C 37.03 434.35 72.84 427.72 109.00 427.00
C 143.99 426.30 186.11 416.10 218.98 408.98 C 251.84 401.85 286.03 390.86 314.92 376.92 C 343.82 362.99 371.82 351.32 391.00 325.00
C 397.20 316.49 405.07 308.20 408.00 298.00
C 409.60 292.43 406.63 284.30 400.23 286.23 C 393.83 288.16 393.37 293.65 391.00 298.00 Z"/>
</g>
<g fill="None" fill-opacity="0.0" stroke="#FDEC99" stroke-opacity="0.96" stroke-width="0.3"><path d="
M 375.00 318.00 
C 382.36 311.95 386.45 306.34 391.00 298.00
C 386.86 299.61 378.49 298.05 374.00 298.00 C 369.51 297.95 361.05 299.75 357.00 298.00
C 358.90 301.28 361.54 307.07 364.75 309.25 C 367.97 311.43 371.17 317.81 375.00 318.00 Z"/>
</g>
<g fill="None" fill-opacity="0.0" stroke="#FDE87E" stroke-opacity="0.97" stroke-width="0.3"><path d="
M 391.00 325.00 
C 395.65 323.68 402.96 328.77 409.00 327.00 C 415.04 325.23 418.69 326.87 424.98 323.98 C 431.26 321.08 430.58 322.30 437.92 317.92 C 445.26 313.53 451.86 305.52 456.00 298.00
C 449.63 301.15 438.67 295.52 432.00 298.00 C 425.33 300.48 414.09 294.53 408.00 298.00
C 405.07 308.20 397.20 316.49 391.00 325.00 Z"/>
</g>
<g fill="None" fill-opacity="0.0" stroke="#6D7FD8" stroke-opacity="1.00" stroke-width="0.3"><path d="
M 277.00 319.00 
C 267.64 316.63 263.01 330.27 272.33 333.67 C 281.65 337.07 286.13 321.32 277.00 319.00 Z"/>
</g>
<g fill="None" fill-opacity="0.0" stroke="#C4E1FE" stroke-opacity="0.98" stroke-width="0.3"><path d="
M 221.00 336.00 
C 211.58 339.22 202.22 343.25 193.00 347.00
C 170.58 356.12 146.09 360.52 122.00 365.00
C 100.10 369.07 78.62 370.81 56.00 373.00
C 44.27 374.14 31.62 375.00 19.00 375.00
C 13.41 375.54 6.30 376.68 0.00 376.00
L 0.00 390.00
C 9.33 390.00 18.67 390.00 28.00 390.00
C 31.40 389.67 35.92 389.00 40.00 389.00
C 61.72 389.00 83.74 385.84 105.00 383.00
C 124.27 380.43 142.95 375.22 162.00 372.00
C 184.14 368.26 210.26 360.77 230.00 350.00
C 236.34 346.54 243.69 341.70 250.25 338.25 C 256.81 334.79 250.73 330.76 251.00 327.00
C 244.72 320.72 227.70 333.71 221.00 336.00 Z"/>
</g>
<g fill="None" fill-opacity="0.0" stroke="#FD983C" stroke-opacity="0.99" stroke-width="0.3"><path d="
M 105.00 383.00 
C 96.24 387.73 90.43 397.73 80.77 401.77 C 71.11 405.81 62.02 413.24 52.00 416.00
C 84.96 413.76 118.31 413.25 150.00 406.00
C 152.63 401.96 149.74 390.79 153.68 386.68 C 157.62 382.57 156.72 375.07 162.00 372.00
C 142.95 375.22 124.27 380.43 105.00 383.00 Z"/>
</g>
<g fill="None" fill-opacity="0.0" stroke="#D5DEB6" stroke-opacity="1.00" stroke-width="0.3"><path d="
M 0.00 376.00 
C 6.30 376.68 13.41 375.54 19.00 375.00
C 12.67 375.00 6.33 375.00 0.00 375.00
L 0.00 376.00 Z"/>
</g>
<g fill="None" fill-opacity="0.0" stroke="#F9C60F" stroke-opacity="1.00" stroke-width="0.3"><path d="
M 40.00 389.00 
C 36.60 389.33 32.08 390.00 28.00 390.00
C 18.67 390.00 9.33 390.00 0.00 390.00
L 0.00 417.00
C 6.67 417.00 13.33 417.00 20.00 417.00
C 30.77 417.00 41.58 416.71 52.00 416.00
C 62.02 413.24 71.11 405.81 80.77 401.77 C 90.43 397.73 96.24 387.73 105.00 383.00
C 83.74 385.84 61.72 389.00 40.00 389.00 Z"/>
</g>
<g fill="None" fill-opacity="0.0" stroke="#FEE97C" stroke-opacity="0.87" stroke-width="0.3"><path d="
M 479.00 388.00 
C 469.55 385.61 463.82 399.31 473.33 403.67 C 482.84 408.03 489.15 390.57 479.00 388.00 Z"/>
</g>
<g fill="None" fill-opacity="0.0" stroke="#D9D79D" stroke-opacity="1.00" stroke-width="0.3"><path d="
M 28.00 390.00 
C 32.08 390.00 36.60 389.33 40.00 389.00
C 35.92 389.00 31.40 389.67 28.00 390.00 Z"/>
</g>
<g fill="None" fill-opacity="0.0" stroke="#FEF0AE" stroke-opacity="0.95" stroke-width="0.3"><path d="
M 435.00 439.00 
C 433.64 433.30 431.34 424.54 429.77 419.23 C 428.20 413.92 421.09 405.86 416.25 411.25 C 411.40 416.64 408.59 420.15 408.00 428.00 C 407.41 435.85 404.14 439.70 396.07 440.07 C 388.01 440.45 384.61 443.27 379.26 448.26 C 373.90 453.25 382.59 460.21 387.77 461.23 C 392.96 462.25 400.96 466.67 407.00 466.00
C 407.78 473.29 409.79 495.58 420.92 494.92 C 432.06 494.27 432.22 472.89 434.00 466.00
C 441.23 463.38 461.65 464.27 462.99 453.01 C 464.33 441.74 442.03 439.66 435.00 439.00 Z"/>
</g>
<g fill="None" fill-opacity="0.0" stroke="#D7D8A4" stroke-opacity="1.00" stroke-width="0.3"><path d="
M 0.00 418.00 
C 6.63 418.65 14.08 417.57 20.00 417.00
C 13.33 417.00 6.67 417.00 0.00 417.00
L 0.00 418.00 Z"/>
</g>
<g fill="None" fill-opacity="0.0" stroke="#FC983D" stroke-opacity="0.98" stroke-width="0.3"><path d="
M 0.00 432.00 
L 0.00 460.00
C 12.58 461.27 25.06 458.95 37.00 458.00
C 45.25 456.17 51.91 457.02 60.00 458.00
C 69.08 458.00 77.41 456.81 86.00 456.00
C 89.56 452.77 89.74 442.23 95.25 439.25 C 100.75 436.26 102.75 428.90 109.00 427.00
C 72.84 427.72 37.03 434.35 0.00 432.00 Z"/>
</g>
<g fill="None" fill-opacity="0.0" stroke="#000000" stroke-opacity="0.00" stroke-width="0.3"><path d="
M 37.00 458.00 
C 44.56 457.40 52.41 458.00 60.00 458.00
C 51.91 457.02 45.25 456.17 37.00 458.00 Z"/>
</g>
<g fill="None" fill-opacity="0.0" stroke="#FEE97C" stroke-opacity="0.87" stroke-width="0.3"><path d="
M 334.00 465.00 
C 323.47 460.72 317.56 475.60 326.98 480.02 C 336.39 484.44 342.46 468.44 334.00 465.00 Z"/>
</g>
<g fill="None" fill-opacity="0.0" stroke="#F1A86B" stroke-opacity="0.70" stroke-width="0.3"><path d="
M 0.00 475.00 
C 1.67 475.00 3.33 475.00 5.00 475.00
C 4.95 476.54 0.97 477.93 3.00 479.00
C 3.71 478.38 6.32 475.25 7.00 475.00
C 5.43 474.85 2.34 473.02 0.00 474.00
L 0.00 475.00 Z"/>
</g>
<g fill="None" fill-opacity="0.0" stroke="#FE9737" stroke-opacity="0.84" stroke-width="0.3"><path d="
M 0.00 481.00 
C 1.78 481.62 2.11 479.78 3.00 479.00
C 0.97 477.93 4.95 476.54 5.00 475.00
C 3.33 475.00 1.67 475.00 0.00 475.00
L 0.00 481.00 Z"/>
</g>
<g fill="#000000" fill-opacity="0.00" stroke="None">
<path d="
M 0.00 61.00 
C 11.97 69.70 19.01 79.81 34.22 83.78 C 49.44 87.74 67.98 82.33 82.00 77.00
C 85.07 86.22 84.91 84.58 89.75 94.25 C 94.60 103.91 105.84 114.44 116.08 117.92 C 126.31 121.41 126.76 122.98 137.00 122.00 C 147.24 121.02 151.71 124.33 150.00 134.00 C 148.29 143.67 151.58 148.04 153.78 155.22 C 155.97 162.41 159.15 165.34 163.25 170.75 C 167.34 176.16 171.73 178.53 177.08 181.92 C 182.43 185.31 189.25 187.36 195.00 190.00
C 179.97 216.35 184.85 251.65 211.00 270.00
C 188.96 289.12 178.50 320.34 193.00 347.00
C 202.22 343.25 211.58 339.22 221.00 336.00
C 209.23 309.02 228.10 279.91 256.00 277.00
C 264.67 276.10 276.70 277.29 284.00 283.00
C 283.07 277.12 288.15 266.66 284.67 260.33 C 281.20 254.00 279.88 248.89 275.25 243.75 C 270.62 238.61 267.33 233.99 261.77 230.23 C 256.21 226.47 252.75 222.09 246.77 219.23 C 240.79 216.37 235.77 211.76 229.31 209.69 C 222.84 207.63 219.27 198.86 225.70 194.70 C 232.14 190.55 238.83 196.60 244.70 199.31 C 250.56 202.01 255.65 205.42 261.08 208.92 C 266.51 212.42 271.26 216.40 276.25 220.75 C 281.24 225.10 284.44 229.01 288.77 234.23 C 293.10 239.45 295.59 244.74 298.78 251.22 C 301.96 257.71 300.59 266.55 302.00 274.00 C 303.41 281.45 296.16 288.96 296.00 295.00
C 300.91 301.40 302.55 310.77 303.00 319.00 C 303.45 327.24 299.85 335.40 295.70 342.70 C 291.54 349.99 285.53 352.83 278.31 357.31 C 271.08 361.78 259.86 360.16 251.33 360.67 C 242.80 361.18 237.25 350.57 230.00 350.00
C 210.26 360.77 184.14 368.26 162.00 372.00
C 156.72 375.07 157.62 382.57 153.68 386.68 C 149.74 390.79 152.63 401.96 150.00 406.00
C 170.89 401.22 194.55 398.28 215.07 393.07 C 235.59 387.86 255.79 382.00 275.23 375.23 C 294.67 368.46 311.43 360.37 329.69 351.70 C 347.96 343.02 359.57 330.67 375.00 318.00
C 371.17 317.81 367.97 311.43 364.75 309.25 C 361.54 307.07 358.90 301.28 357.00 298.00
C 352.00 289.40 350.00 280.44 350.00 270.00
C 350.00 259.62 352.64 249.75 358.00 241.00
C 361.73 234.91 368.83 226.33 375.00 223.00
C 370.46 221.83 367.57 213.37 362.75 211.25 C 357.94 209.12 353.62 203.80 348.75 201.25 C 343.89 198.69 338.92 194.45 333.77 192.23 C 328.62 190.01 322.78 184.43 317.00 184.00
C 290.84 193.78 258.77 183.59 241.00 163.00
C 239.74 161.54 238.16 159.70 237.00 158.00
C 235.84 156.31 234.97 154.76 234.00 153.00
C 226.21 147.49 213.20 150.94 204.98 146.02 C 196.76 141.11 183.50 147.27 177.25 137.75 C 170.99 128.23 188.00 121.79 195.67 127.33 C 203.34 132.87 218.55 128.46 226.00 134.00
C 224.31 128.10 224.00 122.39 224.00 116.00
C 224.00 111.48 223.95 107.24 225.00 103.00
C 220.20 105.71 210.85 99.60 205.00 100.00 C 199.15 100.41 191.10 96.51 184.78 96.22 C 178.45 95.93 171.18 94.21 164.78 93.22 C 158.38 92.24 149.26 92.22 143.00 91.00 C 136.74 89.78 127.95 90.24 122.77 87.23 C 117.59 84.22 119.67 73.36 126.08 73.08 C 132.49 72.80 141.25 74.62 148.00 75.00 C 154.75 75.38 162.19 77.31 169.01 77.99 C 175.82 78.68 182.29 79.72 189.02 80.98 C 195.76 82.23 203.26 82.66 210.00 84.00 C 216.74 85.33 223.17 86.96 230.00 88.00
C 244.73 47.08 296.92 36.76 331.00 57.00
C 336.04 59.99 341.80 63.25 345.75 68.25 C 349.71 73.25 354.13 77.67 356.77 83.23 C 359.41 88.79 363.23 96.74 363.33 102.67 C 363.43 108.60 368.72 121.10 364.00 126.00
C 396.58 136.35 426.61 155.92 454.75 175.25 C 482.88 194.58 505.82 225.48 512.00 258.00
L 512.00 0.00
L 0.00 0.00
L 0.00 61.00
M 476.00 46.00 
C 483.24 48.49 503.74 47.71 504.97 59.03 C 506.21 70.34 484.15 72.27 477.00 73.00
C 473.01 80.27 475.25 101.33 462.99 101.99 C 450.73 102.66 451.15 80.39 448.00 73.00
C 440.96 72.14 418.55 70.28 420.00 59.00 C 421.45 47.72 441.58 48.35 449.00 46.00
C 450.53 39.00 450.92 17.30 462.08 17.08 C 473.23 16.85 474.79 38.84 476.00 46.00
M 135.00 30.00 
C 143.89 32.25 141.23 48.24 131.00 46.00 C 120.77 43.76 124.48 27.33 135.00 30.00
M 445.00 116.00 
C 453.92 119.63 446.59 135.66 437.33 130.67 C 428.07 125.68 434.86 111.87 445.00 116.00
M 485.00 142.00 
C 494.52 144.05 491.43 160.79 481.00 158.00 C 470.57 155.21 474.96 139.84 485.00 142.00
M 249.00 242.00 
C 257.10 245.30 251.14 261.52 241.93 257.07 C 232.71 252.63 237.93 237.50 249.00 242.00 Z"/>
</g>
<g fill="#FEF0AE" fill-opacity="0.95" stroke="None">
<path d="
M 476.00 46.00 
C 474.79 38.84 473.23 16.85 462.08 17.08 C 450.92 17.30 450.53 39.00 449.00 46.00
C 441.58 48.35 421.45 47.72 420.00 59.00 C 418.55 70.28 440.96 72.14 448.00 73.00
C 451.15 80.39 450.73 102.66 462.99 101.99 C 475.25 101.33 473.01 80.27 477.00 73.00
C 484.15 72.27 506.21 70.34 504.97 59.03 C 503.74 47.71 483.24 48.49 476.00 46.00 Z"/>
</g>
<g fill="#FEE97C" fill-opacity="0.87" stroke="None">
<path d="
M 135.00 30.00 
C 124.48 27.33 120.77 43.76 131.00 46.00 C 141.23 48.24 143.89 32.25 135.00 30.00 Z"/>
</g>
<g fill="#24A5FD" fill-opacity="0.99" stroke="None">
<path d="
M 230.00 88.00 
C 228.26 92.84 226.16 98.32 225.00 103.00
C 223.95 107.24 224.00 111.48 224.00 116.00
C 230.66 115.74 239.56 116.34 246.00 116.00 C 252.44 115.66 261.18 115.24 264.30 120.70 C 267.42 126.15 266.61 135.34 265.67 140.67 C 264.73 146.00 256.67 149.53 252.77 150.77 C 248.87 152.01 240.79 159.15 237.00 158.00
C 238.16 159.70 239.74 161.54 241.00 163.00
C 249.03 170.35 264.97 165.24 274.22 163.22 C 283.47 161.20 292.61 155.29 299.75 148.75 C 306.90 142.22 313.42 134.77 317.00 126.00
C 318.25 126.30 318.71 127.83 320.00 128.00
C 314.21 120.21 304.53 112.92 298.25 105.75 C 291.96 98.59 294.61 94.39 294.78 87.78 C 294.95 81.16 300.12 78.00 304.23 75.23 C 308.34 72.46 318.77 74.53 321.69 70.69 C 324.62 66.86 331.63 61.07 331.00 57.00
C 296.92 36.76 244.73 47.08 230.00 88.00 Z"/>
</g>
<g fill="#0DD693" fill-opacity="0.99" stroke="None">
<path d="
M 320.00 128.00 
C 328.96 140.05 328.77 160.04 334.00 174.00
C 334.14 173.78 335.00 174.00 335.00 174.00
C 338.93 172.58 342.33 168.06 345.25 165.25 C 348.17 162.44 352.61 158.27 353.77 154.77 C 354.93 151.27 361.22 145.61 360.00 142.00
C 354.70 139.38 340.18 135.95 343.00 127.00 C 345.82 118.05 359.73 124.64 364.00 126.00
C 368.72 121.10 363.43 108.60 363.33 102.67 C 363.23 96.74 359.41 88.79 356.77 83.23 C 354.13 77.67 349.71 73.25 345.75 68.25 C 341.80 63.25 336.04 59.99 331.00 57.00
C 331.63 61.07 324.62 66.86 321.69 70.69 C 318.77 74.53 308.34 72.46 304.23 75.23 C 300.12 78.00 294.95 81.16 294.78 87.78 C 294.61 94.39 291.96 98.59 298.25 105.75 C 304.53 112.92 314.21 120.21 320.00 128.00 Z"/>
</g>
<g fill="#FD9738" fill-opacity="0.98" stroke="None">
<path d="
M 0.00 117.00 
C 17.22 117.44 33.90 120.18 50.00 125.00
C 60.98 128.29 72.00 134.30 81.75 140.25 C 91.49 146.21 99.83 152.61 108.25 160.75 C 116.66 168.89 122.96 176.93 129.30 186.70 C 135.64 196.47 141.07 206.61 144.93 218.07 C 148.78 229.54 153.46 243.30 153.93 256.07 C 154.39 268.85 154.90 288.99 151.67 300.67 C 148.44 312.35 146.10 326.49 140.07 336.07 C 134.05 345.66 131.38 358.89 122.00 365.00
C 146.09 360.52 170.58 356.12 193.00 347.00
C 178.50 320.34 188.96 289.12 211.00 270.00
C 184.85 251.65 179.97 216.35 195.00 190.00
C 189.25 187.36 182.43 185.31 177.08 181.92 C 171.73 178.53 167.34 176.16 163.25 170.75 C 159.15 165.34 155.97 162.41 153.78 155.22 C 151.58 148.04 148.29 143.67 150.00 134.00 C 151.71 124.33 147.24 121.02 137.00 122.00 C 126.76 122.98 126.31 121.41 116.08 117.92 C 105.84 114.44 94.60 103.91 89.75 94.25 C 84.91 84.58 85.07 86.22 82.00 77.00
C 67.98 82.33 49.44 87.74 34.22 83.78 C 19.01 79.81 11.97 69.70 0.00 61.00
L 0.00 117.00 Z"/>
</g>
<g fill="#C4E2FF" fill-opacity="0.93" stroke="None">
<path d="
M 225.00 103.00 
C 226.16 98.32 228.26 92.84 230.00 88.00
C 223.17 86.96 216.74 85.33 210.00 84.00 C 203.26 82.66 195.76 82.23 189.02 80.98 C 182.29 79.72 175.82 78.68 169.01 77.99 C 162.19 77.31 154.75 75.38 148.00 75.00 C 141.25 74.62 132.49 72.80 126.08 73.08 C 119.67 73.36 117.59 84.22 122.77 87.23 C 127.95 90.24 136.74 89.78 143.00 91.00 C 149.26 92.22 158.38 92.24 164.78 93.22 C 171.18 94.21 178.45 95.93 184.78 96.22 C 191.10 96.51 199.15 100.41 205.00 100.00 C 210.85 99.60 220.20 105.71 225.00 103.00 Z"/>
</g>
<g fill="#06E29C" fill-opacity="0.99" stroke="None">
<path d="
M 226.00 134.00 
C 227.88 140.55 230.68 146.98 234.00 153.00
C 234.97 154.76 235.84 156.31 237.00 158.00
C 240.79 159.15 248.87 152.01 252.77 150.77 C 256.67 149.53 264.73 146.00 265.67 140.67 C 266.61 135.34 267.42 126.15 264.30 120.70 C 261.18 115.24 252.44 115.66 246.00 116.00 C 239.56 116.34 230.66 115.74 224.00 116.00
C 224.00 122.39 224.31 128.10 226.00 134.00 Z"/>
</g>
<g fill="#FEE97C" fill-opacity="0.87" stroke="None">
<path d="
M 445.00 116.00 
C 434.86 111.87 428.07 125.68 437.33 130.67 C 446.59 135.66 453.92 119.63 445.00 116.00 Z"/>
</g>
<g fill="#FED403" fill-opacity="1.00" stroke="None">
<path d="
M 0.00 375.00 
C 6.33 375.00 12.67 375.00 19.00 375.00
C 31.62 375.00 44.27 374.14 56.00 373.00
C 55.01 372.82 53.26 373.52 53.00 372.00
C 135.29 314.97 131.26 181.59 50.00 125.00
C 33.90 120.18 17.22 117.44 0.00 117.00
L 0.00 375.00 Z"/>
</g>
<g fill="#C4E2FE" fill-opacity="0.93" stroke="None">
<path d="
M 360.00 142.00 
C 399.15 161.36 433.95 175.54 466.75 207.25 C 499.55 238.96 506.30 293.35 473.08 327.08 C 439.86 360.81 411.77 377.19 369.32 395.32 C 326.88 413.45 284.25 425.40 237.78 435.78 C 191.31 446.16 134.86 451.42 86.00 456.00
C 77.41 456.81 69.08 458.00 60.00 458.00
C 52.41 458.00 44.56 457.40 37.00 458.00
C 25.06 458.95 12.58 461.27 0.00 460.00
L 0.00 474.00
C 2.34 473.02 5.43 474.85 7.00 475.00
C 42.13 478.40 83.85 471.33 118.00 470.00 C 152.15 468.67 187.41 460.57 219.67 455.67 C 251.93 450.77 283.16 441.63 313.02 433.02 C 342.89 424.42 370.02 413.79 397.08 401.08 C 424.13 388.36 445.12 374.70 467.75 355.75 C 490.37 336.79 506.29 311.37 512.00 284.00
L 512.00 258.00
C 505.82 225.48 482.88 194.58 454.75 175.25 C 426.61 155.92 396.58 136.35 364.00 126.00
C 359.73 124.64 345.82 118.05 343.00 127.00 C 340.18 135.95 354.70 139.38 360.00 142.00 Z"/>
</g>
<g fill="#F9C503" fill-opacity="1.00" stroke="None">
<path d="
M 56.00 373.00 
C 78.62 370.81 100.10 369.07 122.00 365.00
C 131.38 358.89 134.05 345.66 140.07 336.07 C 146.10 326.49 148.44 312.35 151.67 300.67 C 154.90 288.99 154.39 268.85 153.93 256.07 C 153.46 243.30 148.78 229.54 144.93 218.07 C 141.07 206.61 135.64 196.47 129.30 186.70 C 122.96 176.93 116.66 168.89 108.25 160.75 C 99.83 152.61 91.49 146.21 81.75 140.25 C 72.00 134.30 60.98 128.29 50.00 125.00
C 131.26 181.59 135.29 314.97 53.00 372.00
C 53.26 373.52 55.01 372.82 56.00 373.00 Z"/>
</g>
<g fill="#C4E2FE" fill-opacity="0.92" stroke="None">
<path d="
M 234.00 153.00 
C 230.68 146.98 227.88 140.55 226.00 134.00
C 218.55 128.46 203.34 132.87 195.67 127.33 C 188.00 121.79 170.99 128.23 177.25 137.75 C 183.50 147.27 196.76 141.11 204.98 146.02 C 213.20 150.94 226.21 147.49 234.00 153.00 Z"/>
</g>
<g fill="#0693FB" fill-opacity="0.98" stroke="None">
<path d="
M 241.00 163.00 
C 258.77 183.59 290.84 193.78 317.00 184.00
C 321.36 182.37 331.39 178.18 334.00 174.00
C 328.77 160.04 328.96 140.05 320.00 128.00
C 318.71 127.83 318.25 126.30 317.00 126.00
C 313.42 134.77 306.90 142.22 299.75 148.75 C 292.61 155.29 283.47 161.20 274.22 163.22 C 264.97 165.24 249.03 170.35 241.00 163.00 Z"/>
</g>
<g fill="#000000" fill-opacity="0.00" stroke="None">
<path d="
M 335.00 174.00 
C 352.70 188.20 376.93 195.86 391.00 216.00
C 396.60 214.08 404.88 213.43 411.00 214.00
C 428.92 215.68 444.47 225.77 454.00 241.00
C 459.56 249.89 462.58 258.97 463.00 270.00
C 463.38 280.00 460.71 289.46 456.00 298.00
C 451.86 305.52 445.26 313.53 437.92 317.92 C 430.58 322.30 431.26 321.08 424.98 323.98 C 418.69 326.87 415.04 325.23 409.00 327.00 C 402.96 328.77 395.65 323.68 391.00 325.00
C 371.82 351.32 343.82 362.99 314.92 376.92 C 286.03 390.86 251.84 401.85 218.98 408.98 C 186.11 416.10 143.99 426.30 109.00 427.00
C 102.75 428.90 100.75 436.26 95.25 439.25 C 89.74 442.23 89.56 452.77 86.00 456.00
C 134.86 451.42 191.31 446.16 237.78 435.78 C 284.25 425.40 326.88 413.45 369.32 395.32 C 411.77 377.19 439.86 360.81 473.08 327.08 C 506.30 293.35 499.55 238.96 466.75 207.25 C 433.95 175.54 399.15 161.36 360.00 142.00
C 361.22 145.61 354.93 151.27 353.77 154.77 C 352.61 158.27 348.17 162.44 345.25 165.25 C 342.33 168.06 338.93 172.58 335.00 174.00 Z"/>
</g>
<g fill="#FEE97C" fill-opacity="0.85" stroke="None">
<path d="
M 485.00 142.00 
C 474.96 139.84 470.57 155.21 481.00 158.00 C 491.43 160.79 494.52 144.05 485.00 142.00 Z"/>
</g>
<g fill="#C4E2FE" fill-opacity="0.92" stroke="None">
<path d="
M 317.00 184.00 
C 322.78 184.43 328.62 190.01 333.77 192.23 C 338.92 194.45 343.89 198.69 348.75 201.25 C 353.62 203.80 357.94 209.12 362.75 211.25 C 367.57 213.37 370.46 221.83 375.00 223.00
C 379.41 220.62 386.37 217.58 391.00 216.00
C 376.93 195.86 352.70 188.20 335.00 174.00
C 335.00 174.00 334.14 173.78 334.00 174.00
C 331.39 178.18 321.36 182.37 317.00 184.00 Z"/>
</g>
<g fill="#C4E2FE" fill-opacity="0.92" stroke="None">
<path d="
M 284.00 283.00 
C 287.00 285.34 293.32 291.51 296.00 295.00
C 296.16 288.96 303.41 281.45 302.00 274.00 C 300.59 266.55 301.96 257.71 298.78 251.22 C 295.59 244.74 293.10 239.45 288.77 234.23 C 284.44 229.01 281.24 225.10 276.25 220.75 C 271.26 216.40 266.51 212.42 261.08 208.92 C 255.65 205.42 250.56 202.01 244.70 199.31 C 238.83 196.60 232.14 190.55 225.70 194.70 C 219.27 198.86 222.84 207.63 229.31 209.69 C 235.77 211.76 240.79 216.37 246.77 219.23 C 252.75 222.09 256.21 226.47 261.77 230.23 C 267.33 233.99 270.62 238.61 275.25 243.75 C 279.88 248.89 281.20 254.00 284.67 260.33 C 288.15 266.66 283.07 277.12 284.00 283.00 Z"/>
</g>
<g fill="#FDF0AE" fill-opacity="0.98" stroke="None">
<path d="
M 391.00 216.00 
C 386.37 217.58 379.41 220.62 375.00 223.00
C 368.83 226.33 361.73 234.91 358.00 241.00
C 378.50 242.83 400.08 242.00 421.00 242.00
C 421.19 237.57 417.18 229.52 416.08 225.92 C 414.97 222.33 407.45 215.09 411.00 214.00
C 404.88 213.43 396.60 214.08 391.00 216.00 Z"/>
</g>
<g fill="#FEE97F" fill-opacity="0.96" stroke="None">
<path d="
M 421.00 242.00 
C 426.06 242.00 433.14 241.08 438.00 242.00 C 442.86 242.92 450.55 239.96 454.00 241.00
C 444.47 225.77 428.92 215.68 411.00 214.00
C 407.45 215.09 414.97 222.33 416.08 225.92 C 417.18 229.52 421.19 237.57 421.00 242.00 Z"/>
</g>
<g fill="#FCCE01" fill-opacity="0.99" stroke="None">
<path d="
M 350.00 270.00 
C 387.67 270.00 425.33 270.00 463.00 270.00
C 462.58 258.97 459.56 249.89 454.00 241.00
C 450.55 239.96 442.86 242.92 438.00 242.00 C 433.14 241.08 426.06 242.00 421.00 242.00
C 400.08 242.00 378.50 242.83 358.00 241.00
C 352.64 249.75 350.00 259.62 350.00 270.00 Z"/>
</g>
<g fill="#FEE97C" fill-opacity="0.86" stroke="None">
<path d="
M 249.00 242.00 
C 237.93 237.50 232.71 252.63 241.93 257.07 C 251.14 261.52 257.10 245.30 249.00 242.00 Z"/>
</g>
<g fill="#FD8F28" fill-opacity="0.99" stroke="None">
<path d="
M 357.00 298.00 
C 361.05 299.75 369.51 297.95 374.00 298.00 C 378.49 298.05 386.86 299.61 391.00 298.00
C 393.37 293.65 393.83 288.16 400.23 286.23 C 406.63 284.30 409.60 292.43 408.00 298.00
C 414.09 294.53 425.33 300.48 432.00 298.00 C 438.67 295.52 449.63 301.15 456.00 298.00
C 460.71 289.46 463.38 280.00 463.00 270.00
C 425.33 270.00 387.67 270.00 350.00 270.00
C 350.00 280.44 352.00 289.40 357.00 298.00 Z"/>
</g>
<g fill="#8694DE" fill-opacity="0.98" stroke="None">
<path d="
M 256.00 277.00 
C 260.00 279.22 259.79 291.22 261.00 295.00
C 254.14 295.85 252.63 307.82 260.00 309.00
C 259.20 315.85 254.70 321.37 251.00 327.00
C 250.73 330.76 256.81 334.79 250.25 338.25 C 243.69 341.70 236.34 346.54 230.00 350.00
C 237.25 350.57 242.80 361.18 251.33 360.67 C 259.86 360.16 271.08 361.78 278.31 357.31 C 285.53 352.83 291.54 349.99 295.70 342.70 C 299.85 335.40 303.45 327.24 303.00 319.00 C 302.55 310.77 300.91 301.40 296.00 295.00
C 293.32 291.51 287.00 285.34 284.00 283.00
C 276.70 277.29 264.67 276.10 256.00 277.00
M 277.00 319.00 
C 286.13 321.32 281.65 337.07 272.33 333.67 C 263.01 330.27 267.64 316.63 277.00 319.00 Z"/>
</g>
<g fill="#A2AEE6" fill-opacity="0.97" stroke="None">
<path d="
M 221.00 336.00 
C 227.70 333.71 244.72 320.72 251.00 327.00
C 254.70 321.37 259.20 315.85 260.00 309.00
C 252.63 307.82 254.14 295.85 261.00 295.00
C 259.79 291.22 260.00 279.22 256.00 277.00
C 228.10 279.91 209.23 309.02 221.00 336.00 Z"/>
</g>
<g fill="#000000" fill-opacity="0.00" stroke="None">
<path d="
M 7.00 475.00 
C 6.32 475.25 3.71 478.38 3.00 479.00
C 2.11 479.78 1.78 481.62 0.00 481.00
L 0.00 512.00
L 512.00 512.00
L 512.00 284.00
C 506.29 311.37 490.37 336.79 467.75 355.75 C 445.12 374.70 424.13 388.36 397.08 401.08 C 370.02 413.79 342.89 424.42 313.02 433.02 C 283.16 441.63 251.93 450.77 219.67 455.67 C 187.41 460.57 152.15 468.67 118.00 470.00 C 83.85 471.33 42.13 478.40 7.00 475.00
M 479.00 388.00 
C 489.15 390.57 482.84 408.03 473.33 403.67 C 463.82 399.31 469.55 385.61 479.00 388.00
M 435.00 439.00 
C 442.03 439.66 464.33 441.74 462.99 453.01 C 461.65 464.27 441.23 463.38 434.00 466.00
C 432.22 472.89 432.06 494.27 420.92 494.92 C 409.79 495.58 407.78 473.29 407.00 466.00
C 400.96 466.67 392.96 462.25 387.77 461.23 C 382.59 460.21 373.90 453.25 379.26 448.26 C 384.61 443.27 388.01 440.45 396.07 440.07 C 404.14 439.70 407.41 435.85 408.00 428.00 C 408.59 420.15 411.40 416.64 416.25 411.25 C 421.09 405.86 428.20 413.92 429.77 419.23 C 431.34 424.54 433.64 433.30 435.00 439.00
M 334.00 465.00 
C 342.46 468.44 336.39 484.44 326.98 480.02 C 317.56 475.60 323.47 460.72 334.00 465.00 Z"/>
</g>
<g fill="#C4E2FE" fill-opacity="0.95" stroke="None">
<path d="
M 391.00 298.00 
C 386.45 306.34 382.36 311.95 375.00 318.00
C 359.57 330.67 347.96 343.02 329.69 351.70 C 311.43 360.37 294.67 368.46 275.23 375.23 C 255.79 382.00 235.59 387.86 215.07 393.07 C 194.55 398.28 170.89 401.22 150.00 406.00
C 118.31 413.25 84.96 413.76 52.00 416.00
C 41.58 416.71 30.77 417.00 20.00 417.00
C 14.08 417.57 6.63 418.65 0.00 418.00
L 0.00 432.00
C 37.03 434.35 72.84 427.72 109.00 427.00
C 143.99 426.30 186.11 416.10 218.98 408.98 C 251.84 401.85 286.03 390.86 314.92 376.92 C 343.82 362.99 371.82 351.32 391.00 325.00
C 397.20 316.49 405.07 308.20 408.00 298.00
C 409.60 292.43 406.63 284.30 400.23 286.23 C 393.83 288.16 393.37 293.65 391.00 298.00 Z"/>
</g>
<g fill="#FDEC99" fill-opacity="0.96" stroke="None">
<path d="
M 375.00 318.00 
C 382.36 311.95 386.45 306.34 391.00 298.00
C 386.86 299.61 378.49 298.05 374.00 298.00 C 369.51 297.95 361.05 299.75 357.00 298.00
C 358.90 301.28 361.54 307.07 364.75 309.25 C 367.97 311.43 371.17 317.81 375.00 318.00 Z"/>
</g>
<g fill="#FDE87E" fill-opacity="0.97" stroke="None">
<path d="
M 391.00 325.00 
C 395.65 323.68 402.96 328.77 409.00 327.00 C 415.04 325.23 418.69 326.87 424.98 323.98 C 431.26 321.08 430.58 322.30 437.92 317.92 C 445.26 313.53 451.86 305.52 456.00 298.00
C 449.63 301.15 438.67 295.52 432.00 298.00 C 425.33 300.48 414.09 294.53 408.00 298.00
C 405.07 308.20 397.20 316.49 391.00 325.00 Z"/>
</g>
<g fill="#6D7FD8" fill-opacity="1.00" stroke="None">
<path d="
M 277.00 319.00 
C 267.64 316.63 263.01 330.27 272.33 333.67 C 281.65 337.07 286.13 321.32 277.00 319.00 Z"/>
</g>
<g fill="#C4E1FE" fill-opacity="0.98" stroke="None">
<path d="
M 221.00 336.00 
C 211.58 339.22 202.22 343.25 193.00 347.00
C 170.58 356.12 146.09 360.52 122.00 365.00
C 100.10 369.07 78.62 370.81 56.00 373.00
C 44.27 374.14 31.62 375.00 19.00 375.00
C 13.41 375.54 6.30 376.68 0.00 376.00
L 0.00 390.00
C 9.33 390.00 18.67 390.00 28.00 390.00
C 31.40 389.67 35.92 389.00 40.00 389.00
C 61.72 389.00 83.74 385.84 105.00 383.00
C 124.27 380.43 142.95 375.22 162.00 372.00
C 184.14 368.26 210.26 360.77 230.00 350.00
C 236.34 346.54 243.69 341.70 250.25 338.25 C 256.81 334.79 250.73 330.76 251.00 327.00
C 244.72 320.72 227.70 333.71 221.00 336.00 Z"/>
</g>
<g fill="#FD983C" fill-opacity="0.99" stroke="None">
<path d="
M 105.00 383.00 
C 96.24 387.73 90.43 397.73 80.77 401.77 C 71.11 405.81 62.02 413.24 52.00 416.00
C 84.96 413.76 118.31 413.25 150.00 406.00
C 152.63 401.96 149.74 390.79 153.68 386.68 C 157.62 382.57 156.72 375.07 162.00 372.00
C 142.95 375.22 124.27 380.43 105.00 383.00 Z"/>
</g>
<g fill="#D5DEB6" fill-opacity="1.00" stroke="None">
<path d="
M 0.00 376.00 
C 6.30 376.68 13.41 375.54 19.00 375.00
C 12.67 375.00 6.33 375.00 0.00 375.00
L 0.00 376.00 Z"/>
</g>
<g fill="#F9C60F" fill-opacity="1.00" stroke="None">
<path d="
M 40.00 389.00 
C 36.60 389.33 32.08 390.00 28.00 390.00
C 18.67 390.00 9.33 390.00 0.00 390.00
L 0.00 417.00
C 6.67 417.00 13.33 417.00 20.00 417.00
C 30.77 417.00 41.58 416.71 52.00 416.00
C 62.02 413.24 71.11 405.81 80.77 401.77 C 90.43 397.73 96.24 387.73 105.00 383.00
C 83.74 385.84 61.72 389.00 40.00 389.00 Z"/>
</g>
<g fill="#FEE97C" fill-opacity="0.87" stroke="None">
<path d="
M 479.00 388.00 
C 469.55 385.61 463.82 399.31 473.33 403.67 C 482.84 408.03 489.15 390.57 479.00 388.00 Z"/>
</g>
<g fill="#D9D79D" fill-opacity="1.00" stroke="None">
<path d="
M 28.00 390.00 
C 32.08 390.00 36.60 389.33 40.00 389.00
C 35.92 389.00 31.40 389.67 28.00 390.00 Z"/>
</g>
<g fill="#FEF0AE" fill-opacity="0.95" stroke="None">
<path d="
M 435.00 439.00 
C 433.64 433.30 431.34 424.54 429.77 419.23 C 428.20 413.92 421.09 405.86 416.25 411.25 C 411.40 416.64 408.59 420.15 408.00 428.00 C 407.41 435.85 404.14 439.70 396.07 440.07 C 388.01 440.45 384.61 443.27 379.26 448.26 C 373.90 453.25 382.59 460.21 387.77 461.23 C 392.96 462.25 400.96 466.67 407.00 466.00
C 407.78 473.29 409.79 495.58 420.92 494.92 C 432.06 494.27 432.22 472.89 434.00 466.00
C 441.23 463.38 461.65 464.27 462.99 453.01 C 464.33 441.74 442.03 439.66 435.00 439.00 Z"/>
</g>
<g fill="#D7D8A4" fill-opacity="1.00" stroke="None">
<path d="
M 0.00 418.00 
C 6.63 418.65 14.08 417.57 20.00 417.00
C 13.33 417.00 6.67 417.00 0.00 417.00
L 0.00 418.00 Z"/>
</g>
<g fill="#FC983D" fill-opacity="0.98" stroke="None">
<path d="
M 0.00 432.00 
L 0.00 460.00
C 12.58 461.27 25.06 458.95 37.00 458.00
C 45.25 456.17 51.91 457.02 60.00 458.00
C 69.08 458.00 77.41 456.81 86.00 456.00
C 89.56 452.77 89.74 442.23 95.25 439.25 C 100.75 436.26 102.75 428.90 109.00 427.00
C 72.84 427.72 37.03 434.35 0.00 432.00 Z"/>
</g>
<g fill="#000000" fill-opacity="0.00" stroke="None">
<path d="
M 37.00 458.00 
C 44.56 457.40 52.41 458.00 60.00 458.00
C 51.91 457.02 45.25 456.17 37.00 458.00 Z"/>
</g>
<g fill="#FEE97C" fill-opacity="0.87" stroke="None">
<path d="
M 334.00 465.00 
C 323.47 460.72 317.56 475.60 326.98 480.02 C 336.39 484.44 342.46 468.44 334.00 465.00 Z"/>
</g>
<g fill="#F1A86B" fill-opacity="0.70" stroke="None">
<path d="
M 0.00 475.00 
C 1.67 475.00 3.33 475.00 5.00 475.00
C 4.95 476.54 0.97 477.93 3.00 479.00
C 3.71 478.38 6.32 475.25 7.00 475.00
C 5.43 474.85 2.34 473.02 0.00 474.00
L 0.00 475.00 Z"/>
</g>
<g fill="#FE9737" fill-opacity="0.84" stroke="None">
<path d="
M 0.00 481.00 
C 1.78 481.62 2.11 479.78 3.00 479.00
C 0.97 477.93 4.95 476.54 5.00 475.00
C 3.33 475.00 1.67 475.00 0.00 475.00
L 0.00 481.00 Z"/>
</g>
</svg>